<svg width="721" height="224" viewBox="0 0 721 224" fill="none" xmlns="http://www.w3.org/2000/svg">
<path d="M112.868 32.0272H113.052C122.203 33.7592 131.012 36.8192 139.484 41.2099C147.951 45.5965 155.775 51.3792 162.947 58.5512C172.221 67.8259 179.205 78.3338 183.905 90.0832C188.604 101.83 190.953 113.825 190.955 126.067C190.953 138.307 188.635 150.271 183.999 161.958C179.361 173.645 172.343 184.187 162.948 193.583C153.673 202.857 143.161 209.845 131.415 214.541C119.665 219.241 107.701 221.559 95.5254 221.498C83.3428 221.437 71.3801 219.054 59.6321 214.357C47.8841 209.655 37.3774 202.671 28.1014 193.395C18.8294 184.123 11.8401 173.611 7.14142 161.865C2.44142 150.115 0.0614201 138.155 8.67969e-05 125.973C-0.0612465 113.797 2.25742 101.833 6.95742 90.0832C11.6561 78.3392 18.6428 67.8259 27.9174 58.5525C32.7401 53.7299 37.9001 49.5579 43.4028 46.0299C48.9054 42.5085 54.5614 39.5672 60.3748 37.2218V72.4619C58.6428 73.6992 56.9121 74.9978 55.1828 76.3578C53.4481 77.7192 51.7801 79.2045 50.1748 80.8099C44.1147 86.8712 39.4774 93.7325 36.2641 101.398C33.0454 109.066 31.4374 117.225 31.4414 125.883C31.4374 134.538 33.0788 142.729 36.3561 150.458C39.6308 158.185 44.3001 165.078 50.3601 171.138C56.4174 177.195 63.2801 181.833 70.9481 185.051C78.6134 188.263 86.7721 189.874 95.4307 189.873C104.085 189.874 112.276 188.297 120.009 185.143C127.735 181.989 134.629 177.386 140.691 171.325C146.872 165.143 151.536 158.187 154.695 150.458C157.844 142.729 159.42 134.538 159.421 125.881C159.42 117.225 157.813 109.062 154.6 101.399C151.383 93.7298 146.747 86.8658 140.689 80.8085C132.651 72.7712 123.44 67.2685 113.052 64.3005" fill="#5A92DB"/>
<path d="M272.142 85.5133C280.709 85.5133 288.492 87.1306 295.488 90.3666C302.48 93.604 308.472 98.0613 313.456 103.744C318.441 109.428 322.285 116.031 324.998 123.549C327.708 131.068 329.064 139.115 329.064 147.681V220.341H297.586V147.681C297.586 138.939 294.524 131.677 288.405 125.909C282.458 119.964 275.289 116.991 266.896 116.991C258.326 116.991 251.068 119.964 245.125 125.909C239.178 131.855 236.206 139.115 236.206 147.681V220.341H204.729V89.1866H236.206V99.152C240.928 95.1306 246.258 91.852 252.208 89.3146C258.15 86.7813 264.797 85.5133 272.142 85.5133Z" fill="#25282A"/>
<path d="M474.119 167.879C474.119 176.448 472.717 184.187 469.923 191.092C467.123 198.003 463.143 203.859 457.987 208.668C452.826 213.48 446.577 217.194 439.233 219.815C431.887 222.44 423.665 223.75 414.575 223.75C400.057 223.75 387.118 221.43 375.753 216.8C364.383 212.168 355.03 206.878 347.685 200.93L369.457 179.158C375.229 184.404 381.695 188.43 388.867 191.224C393.238 192.974 397.347 194.11 401.197 194.632C405.041 195.158 408.189 195.419 410.639 195.419C415.185 195.419 419.338 194.856 423.101 193.716C426.858 192.58 430.137 191.051 432.937 189.124C438.879 184.756 441.855 178.986 441.855 171.812C441.855 167.444 440.281 163.508 437.133 160.008C434.683 157.214 431.534 154.938 427.69 153.188C424.542 151.442 421.218 150.042 417.722 148.99C414.222 147.942 411.075 146.983 408.279 146.107C407.402 145.758 406.615 145.542 405.919 145.45C405.217 145.364 404.606 145.148 404.082 144.795C403.73 144.795 403.206 144.622 402.509 144.27C398.837 143.222 393.545 141.383 386.638 138.762C379.729 136.138 372.866 132.556 366.047 128.006C350.131 117.343 342.178 104.226 342.178 88.6602C342.178 78.3442 343.969 69.6429 347.554 62.5615C351.135 55.4775 355.817 49.7055 361.587 45.2495C367.359 40.7895 373.786 37.5989 380.869 35.6722C387.95 33.7495 394.901 32.7868 401.721 32.7868C414.313 32.7868 424.891 34.2749 433.461 37.2469C442.027 40.2242 448.846 43.1949 453.921 46.1655C456.545 47.7388 458.774 49.2709 460.61 50.7562C462.447 52.2455 464.061 53.6015 465.463 54.8229L443.166 77.3815C438.446 72.6602 433.634 69.0762 428.739 66.6282C421.394 63.1308 413.698 61.3815 405.655 61.3815C402.157 61.3815 398.659 61.8189 395.163 62.6909C391.663 63.5682 388.605 64.7055 385.982 66.1015C378.286 70.8229 374.442 77.0322 374.442 84.7269C374.442 89.4469 376.015 93.4722 379.162 96.7922C381.433 99.4135 384.582 101.774 388.605 103.874C391.925 105.623 395.426 107.02 399.098 108.072C402.77 109.119 406.179 110.083 409.329 110.958L412.475 111.744C413.349 112.098 415.009 112.619 417.461 113.318C419.907 114.02 422.791 115.068 426.117 116.464C429.437 117.866 433.067 119.527 437.002 121.45C440.937 123.376 444.826 125.644 448.675 128.27C465.634 139.464 474.119 152.663 474.119 167.879Z" fill="#25282A"/>
<path d="M555.171 116.99C545.025 116.99 536.109 120.664 528.415 128.005C525.091 131.332 522.555 135.005 520.808 139.024H589.533C587.784 135.005 585.245 131.332 581.925 128.005C574.581 120.664 565.663 116.99 555.171 116.99ZM589.533 170.5H520.808C522.555 174.525 525.091 178.106 528.415 181.257C532.087 184.926 536.193 187.684 540.743 189.518C545.289 191.356 550.096 192.272 555.171 192.272C562.34 192.272 568.72 190.613 574.319 187.29L607.109 200.404C600.813 207.749 593.205 213.481 584.288 217.588C575.369 221.694 565.663 223.749 555.171 223.749C545.552 223.749 536.547 221.956 528.153 218.374C519.759 214.789 512.415 209.849 506.119 203.55C499.823 197.257 494.88 189.912 491.297 181.518C487.711 173.125 485.92 164.206 485.92 154.761C485.92 145.148 487.711 136.137 491.297 127.744C494.88 119.35 499.823 112.005 506.119 105.712C512.415 99.4144 519.759 94.4757 528.153 90.8877C536.547 87.3077 545.552 85.513 555.171 85.513C564.787 85.513 573.795 87.3077 582.188 90.8877C590.581 94.4757 597.927 99.4144 604.223 105.712C610.519 112.005 615.456 119.35 619.043 127.744C622.625 136.137 624.421 145.148 624.421 154.761C624.421 160.361 623.805 165.606 622.584 170.5H589.533Z" fill="#25282A"/>
<path d="M638.847 36.724H670.324V220.341H638.847V36.724Z" fill="#25282A"/>
<path d="M688.683 36.724H720.16V220.341H688.683V36.724Z" fill="#25282A"/>
<path d="M113.819 153.568L82.4373 122.315V0.773453L113.819 32.0268V153.568Z" fill="#25282A"/>
</svg>
