<svg width="512" height="512" viewBox="0 0 512 512" fill="none" xmlns="http://www.w3.org/2000/svg">
<rect width="512" height="512" fill="white"/>
<path d="M293.886 82.64H294.293C314.387 86.4409 333.734 93.1643 352.341 102.807C370.935 112.441 388.119 125.141 403.87 140.893C424.242 161.262 439.578 184.34 449.9 210.144C460.219 235.942 465.379 262.285 465.382 289.173C465.379 316.055 460.287 342.33 450.105 367.997C439.92 393.66 424.506 416.817 403.873 437.453C383.504 457.82 360.417 473.167 334.619 483.48C308.815 493.802 282.539 498.895 255.798 498.76C229.042 498.625 202.769 493.393 176.968 483.076C151.167 472.751 128.092 457.413 107.719 437.04C87.356 416.677 72.0059 393.59 61.6866 367.792C51.3643 341.988 46.1373 315.721 46.0026 288.965C45.8679 262.224 50.9602 235.948 61.2825 210.144C71.6018 184.352 86.9461 161.262 107.315 140.896C117.907 130.304 129.24 121.141 141.325 113.393C153.41 105.659 165.832 99.1995 178.599 94.0486V171.444C174.798 174.161 170.994 177.013 167.196 180C163.386 182.99 159.723 186.252 156.197 189.778C142.888 203.09 132.704 218.159 125.646 234.994C118.578 251.834 115.046 269.752 115.055 288.769C115.046 307.776 118.651 325.765 125.849 342.74C133.04 359.71 143.295 374.849 156.604 388.158C169.908 401.461 184.98 411.646 201.82 418.715C218.655 425.769 236.573 429.304 255.59 429.304C274.597 429.304 292.586 425.843 309.57 418.917C326.537 411.989 341.679 401.88 354.991 388.568C368.566 374.993 378.81 359.716 385.747 342.74C392.663 325.765 396.125 307.776 396.128 288.763C396.125 269.752 392.596 251.825 385.542 234.996C378.473 218.153 368.291 203.078 354.988 189.775C337.333 172.123 317.105 160.038 294.29 153.519" fill="#5A92DB"/>
<path d="M295.973 349.571L227.053 280.932V14L295.973 82.6394V349.571Z" fill="#25282A"/>
</svg>
